<?xml version="1.0" encoding="UTF-8" standalone="no"?>
<!-- Generator: Adobe Illustrator 18.1.1, SVG Export Plug-In . SVG Version: 6.00 Build 0)  -->

<svg
   xmlns:dc="http://purl.org/dc/elements/1.1/"
   xmlns:cc="http://creativecommons.org/ns#"
   xmlns:rdf="http://www.w3.org/1999/02/22-rdf-syntax-ns#"
   xmlns:svg="http://www.w3.org/2000/svg"
   xmlns="http://www.w3.org/2000/svg"
   xmlns:sodipodi="http://sodipodi.sourceforge.net/DTD/sodipodi-0.dtd"
   xmlns:inkscape="http://www.inkscape.org/namespaces/inkscape"
   version="1.1"
   id="Layer_1"
   x="0px"
   y="0px"
   viewBox="0 0 24 24"
   enable-background="new 0 0 24 24"
   xml:space="preserve"
   inkscape:version="0.91 r13725"
   sodipodi:docname="Noun_project_989_red.svg"><metadata
     id="metadata4270"><rdf:RDF><cc:Work
         rdf:about=""><dc:format>image/svg+xml</dc:format><dc:type
           rdf:resource="http://purl.org/dc/dcmitype/StillImage" /><dc:title></dc:title></cc:Work></rdf:RDF></metadata><defs
     id="defs4268" /><sodipodi:namedview
     pagecolor="#ffffff"
     bordercolor="#666666"
     borderopacity="1"
     objecttolerance="10"
     gridtolerance="10"
     guidetolerance="10"
     inkscape:pageopacity="0"
     inkscape:pageshadow="2"
     inkscape:window-width="1851"
     inkscape:window-height="1056"
     id="namedview4266"
     showgrid="false"
     inkscape:zoom="38.291667"
     inkscape:cx="12"
     inkscape:cy="12"
     inkscape:window-x="69"
     inkscape:window-y="24"
     inkscape:window-maximized="1"
     inkscape:current-layer="Layer_1" /><g
     transform="matrix(1 0 0 -1 0 1638)"
     display="none"
     id="g4258"><path
       display="inline"
       d="M14.9,1631.5c0.8,0,1.6-0.3,2.3-0.9c0.3-0.3,0.6-0.7,0.8-1.1c0.2-0.5,0.3-0.9,0.3-1.5   c0-1.4-0.6-2.6-1.8-3.6c-0.5-0.4-1.3-1.2-2.6-2.2s-1.9-1.5-1.9-1.5l-4.6,3.8c-0.5,0.5-1,1-1.3,1.6c-0.3,0.6-0.5,1.2-0.5,1.8   c0,0.5,0.1,1.1,0.2,1.5c0.2,0.7,0.7,1.3,1.3,1.7c0.6,0.4,1.2,0.6,1.9,0.6c1.2,0,2.2-0.5,2.9-1.5C12.8,1631,13.8,1631.5,14.9,1631.5   z"
       id="path4260" /></g><path
     display="none"
     d="M15.1,7.4c-1.1,0-3.1,1-3.1,2.3c0-1.2-1.9-2.3-3.1-2.3c-1.4,0-2.6,0.8-3.2,2.1c-1.2,2.5,1.1,4.4,2.8,5.9  C9.4,16,12,18.2,12,18.2s3.9-3.2,4.6-3.9c1.2-1.1,2.3-2.5,1.9-4.2C18.1,8.5,16.5,7.4,15.1,7.4z"
     id="path4262" /><path
     fill="#4588A9"
     d="M15,7c-2,0-3,2-3,2s-1-2-3-2c-2.5,0-4,2-4,4c0,4,5,5,7,8c2-3,7-4,7-8C19,9,17.5,7,15,7z"
     id="path4264"
     style="fill:#d11d13;fill-opacity:1" /></svg>